<svg width="487" height="195" xmlns="http://www.w3.org/2000/svg" xmlns:xlink="http://www.w3.org/1999/xlink" overflow="hidden"><defs><clipPath id="clip0"><rect x="265" y="167" width="487" height="195"/></clipPath></defs><g clip-path="url(#clip0)" transform="translate(-265 -167)"><path d="M271 169 748.401 169" stroke="#000000" stroke-width="4" stroke-miterlimit="8" fill="none" fill-rule="evenodd"/><path d="M271 277 748.401 277" stroke="#000000" stroke-width="4" stroke-miterlimit="8" fill="none" fill-rule="evenodd"/><path d="M0 0 0.000104987 103.75" stroke="#ED7D31" stroke-width="5.33333" stroke-miterlimit="8" fill="none" fill-rule="evenodd" transform="matrix(1 0 0 -1 541.5 275.25)"/><path d="M0.666667-1.83204e-06 0.666753 31.5374-0.66658 31.5374-0.666667 1.83204e-06ZM4.00008 30.2041 0.000104987 38.2041-3.99992 30.2041Z" transform="matrix(1 0 0 -1 541.5 321.704)"/><text font-family="Calibri,Calibri_MSFontService,sans-serif" font-weight="400" font-size="24" transform="translate(516.1 340)">Flame<tspan fill="#4472C4" font-family="Cambria Math,Cambria Math_MSFontService,sans-serif" font-size="24" x="-156.38" y="-141">𝑇</tspan><tspan fill="#4472C4" font-family="Cambria Math,Cambria Math_MSFontService,sans-serif" font-size="18" x="-145.327" y="-136">𝑢</tspan><tspan fill="#4472C4" font-family="Cambria Math,Cambria Math_MSFontService,sans-serif" font-size="24" x="-132.7" y="-141">,</tspan><tspan fill="#4472C4" font-family="Cambria Math,Cambria Math_MSFontService,sans-serif" font-size="24" x="-123.7" y="-141">𝑝</tspan><tspan fill="#4472C4" font-family="Cambria Math,Cambria Math_MSFontService,sans-serif" font-size="18" x="-111.307" y="-136">𝑢</tspan><tspan fill="#4472C4" font-family="Cambria Math,Cambria Math_MSFontService,sans-serif" font-size="24" x="-98.68" y="-141">,</tspan><tspan fill="#4472C4" font-family="Cambria Math,Cambria Math_MSFontService,sans-serif" font-size="24" x="-89.68" y="-141">𝜌</tspan><tspan fill="#4472C4" font-family="Cambria Math,Cambria Math_MSFontService,sans-serif" font-size="18" x="-77.12" y="-136">𝑢</tspan><tspan fill="#4472C4" font-family="Cambria Math,Cambria Math_MSFontService,sans-serif" font-size="24" x="-240.746" y="-109">𝑉</tspan><tspan fill="#ED7D31" font-family="Cambria Math,Cambria Math_MSFontService,sans-serif" font-size="24" x="93.5814" y="-141">𝑇</tspan><tspan fill="#ED7D31" font-family="Cambria Math,Cambria Math_MSFontService,sans-serif" font-size="18" x="105.335" y="-136">𝑏</tspan><tspan fill="#ED7D31" font-family="Cambria Math,Cambria Math_MSFontService,sans-serif" font-size="24" x="117.295" y="-141">,</tspan><tspan fill="#ED7D31" font-family="Cambria Math,Cambria Math_MSFontService,sans-serif" font-size="24" x="126.295" y="-141">𝑝</tspan><tspan fill="#ED7D31" font-family="Cambria Math,Cambria Math_MSFontService,sans-serif" font-size="18" x="138.868" y="-136">𝑏</tspan><tspan fill="#ED7D31" font-family="Cambria Math,Cambria Math_MSFontService,sans-serif" font-size="24" x="150.828" y="-141">,</tspan><tspan fill="#ED7D31" font-family="Cambria Math,Cambria Math_MSFontService,sans-serif" font-size="24" x="159.828" y="-141">𝜌</tspan><tspan fill="#ED7D31" font-family="Cambria Math,Cambria Math_MSFontService,sans-serif" font-size="18" x="172.568" y="-136">𝑏</tspan></text><path d="M301.5 223.5 331.5 223.5 331.5 220.5 337.5 226.5 331.5 232.5 331.5 229.5 301.5 229.5Z" stroke="#2F528F" stroke-width="1.33333" stroke-miterlimit="8" fill="#4472C4" fill-rule="evenodd"/><path d="M539.5 229.5 509.5 229.5 509.5 232.5 503.5 226.5 509.5 220.5 509.5 223.5 539.5 223.5Z" stroke="#000000" stroke-width="1.33333" stroke-miterlimit="8" fill="#ED7D31" fill-rule="evenodd"/><text font-family="Cambria Math,Cambria Math_MSFontService,sans-serif" font-weight="400" font-size="24" transform="translate(489.472 251)">𝑆<tspan font-size="18" x="12.4667" y="5">𝑇</tspan></text></g></svg>