<svg width="1259" height="271" xmlns="http://www.w3.org/2000/svg" xmlns:xlink="http://www.w3.org/1999/xlink" overflow="hidden"><defs><clipPath id="clip0"><rect x="-1" y="-1" width="1259" height="271"/></clipPath><clipPath id="clip1"><rect x="472" y="0" width="470" height="203"/></clipPath><clipPath id="clip2"><rect x="472" y="0" width="470" height="203"/></clipPath><clipPath id="clip3"><rect x="472" y="0" width="470" height="203"/></clipPath><clipPath id="clip4"><rect x="472" y="0" width="470" height="203"/></clipPath><clipPath id="clip5"><rect x="956" y="11" width="302" height="181"/></clipPath><clipPath id="clip6"><rect x="956" y="11" width="302" height="181"/></clipPath><clipPath id="clip7"><rect x="956" y="11" width="302" height="181"/></clipPath><clipPath id="clip8"><rect x="956" y="11" width="302" height="181"/></clipPath><clipPath id="clip9"><rect x="0" y="4" width="458" height="199"/></clipPath><clipPath id="clip10"><rect x="0" y="4" width="458" height="199"/></clipPath><clipPath id="clip11"><rect x="0" y="4" width="458" height="199"/></clipPath><clipPath id="clip12"><rect x="0" y="4" width="459" height="200"/></clipPath></defs><g clip-path="url(#clip0)" transform="translate(1 1)"><g clip-path="url(#clip1)"><g clip-path="url(#clip2)"><g clip-path="url(#clip3)"><g clip-path="url(#clip4)"><path d="M191.862 145.213 256.569 145.213 256.569 160.261 191.862 160.261Z" stroke="#000000" stroke-width="1.3376" stroke-miterlimit="8" fill="#A5A5A5" transform="matrix(1 0 0 1.00174 370.175 -34.6708)"/><path d="M1.0032-1.11997e-06 1.00325 42.1548-1.00316 42.1548-1.0032 1.11997e-06ZM3.00965 41.1516 5.26616e-05 47.1708-3.00956 41.1516Z" fill="#4472C4" transform="matrix(1 0 0 -1.00174 517.646 196.488)"/><path d="M146.467 121.709 146.467 90.7898 176.983 90.7898 176.983 92.7962 147.471 92.7962 148.474 91.793 148.474 121.709ZM175.98 88.7834 181.999 91.793 175.98 94.8026Z" fill="#4472C4" transform="matrix(1 0 0 1.00174 370.175 -34.6708)"/><path d="M451.441 185.091 451.441 225.777 449.434 225.777 449.434 185.091ZM453.447 224.773 450.438 230.793 447.428 224.773Z" transform="matrix(1 0 0 1.00174 370.175 -34.6708)"/><path d="M103.079 218.949C103.079 212.3 108.469 206.91 115.117 206.91 121.766 206.91 127.156 212.3 127.156 218.949 127.156 225.598 121.766 230.987 115.117 230.987 108.469 230.987 103.079 225.598 103.079 218.949Z" stroke="#000000" stroke-width="1.3376" stroke-miterlimit="8" fill="none" fill-rule="evenodd" transform="matrix(1 0 0 1.00174 370.175 -34.6708)"/><text font-family="Calibri,Calibri_MSFontService,sans-serif" font-weight="400" font-size="24" transform="matrix(0.501601 0 0 0.502475 482.096 188)">2</text><path d="M115.117 89.0341C115.117 82.3854 120.507 76.9957 127.156 76.9957 133.805 76.9957 139.194 82.3854 139.194 89.0341 139.194 95.6829 133.805 101.073 127.156 101.073 120.507 101.073 115.117 95.6829 115.117 89.0341Z" stroke="#000000" stroke-width="1.3376" stroke-miterlimit="8" fill="none" fill-rule="evenodd" transform="matrix(1 0 0 1.00174 370.175 -34.6708)"/><text font-family="Calibri,Calibri_MSFontService,sans-serif" font-weight="400" font-size="24" transform="matrix(0.501601 0 0 0.502475 494.135 58)">3</text><path d="M416.58 218.949C416.58 212.3 421.969 206.91 428.618 206.91 435.267 206.91 440.656 212.3 440.656 218.949 440.656 225.598 435.267 230.987 428.618 230.987 421.969 230.987 416.58 225.598 416.58 218.949Z" stroke="#000000" stroke-width="1.3376" stroke-miterlimit="8" fill="none" fill-rule="evenodd" transform="matrix(1 0 0 1.00174 370.175 -34.6708)"/><text font-family="Calibri,Calibri_MSFontService,sans-serif" font-weight="400" font-size="24" transform="matrix(0.501601 0 0 0.502475 795.438 188)">6</text><path d="M426.612 75.4909C426.612 68.8422 432.001 63.4525 438.65 63.4525 445.299 63.4525 450.688 68.8422 450.688 75.4909 450.688 82.1396 445.299 87.5294 438.65 87.5294 432.001 87.5294 426.612 82.1396 426.612 75.4909Z" stroke="#000000" stroke-width="1.3376" stroke-miterlimit="8" fill="none" fill-rule="evenodd" transform="matrix(1 0 0 1.00174 370.175 -34.6708)"/><text font-family="Calibri,Calibri_MSFontService,sans-serif" font-weight="400" font-size="24" transform="matrix(0.501601 0 0 0.502475 805.551 45)">5</text><path d="M484.797 145.213 500.347 145.213 500.347 160.261 484.797 160.261Z" stroke="#000000" stroke-width="1.3376" stroke-miterlimit="8" fill="#A5A5A5" transform="matrix(1 0 0 1.00174 370.175 -34.6708)"/><path d="M0.0151104-1.67194 27.9045-1.41988 27.8742 1.92399-0.0151104 1.67194ZM26.2628-4.77886 36.249 0.327607 26.1721 5.25276Z" fill="#70AD47" transform="matrix(1 0 0 -1.00174 870.522 118.159)"/><text font-family="Cambria Math,Cambria Math_MSFontService,sans-serif" font-weight="400" font-size="29" transform="matrix(0.501601 0 0 0.502475 878.116 100)">ğ‘Š</text><path d="M-2.04559-8.20368C-2.27288-8.20368-2.46228-8.28298-2.61381-8.44159-2.76534-8.60025-2.8411-8.80029-2.8411-9.04181-2.8411-9.28328-2.76534-9.48337-2.61381-9.64197-2.46228-9.80063-2.27288-9.87993-2.04559-9.87993-1.82304-9.87993-1.636-9.80063-1.48447-9.64197-1.33295-9.48337-1.25719-9.28328-1.25719-9.04181-1.25719-8.80029-1.33295-8.60025-1.48447-8.44159-1.636-8.28298-1.82304-8.20368-2.04559-8.20368Z" transform="matrix(1 0 0 1.00174 887.887 97.4802)"/><text font-family="Cambria Math,Cambria Math_MSFontService,sans-serif" font-weight="400" font-size="21" transform="matrix(0.501601 0 0 0.502475 890.124 104)">ğ‘›ğ‘’ğ‘¡<tspan font-size="24" x="-725.796" y="163.192">ğ´</tspan><tspan font-size="24" x="-710.629" y="163.192">ğ‘–ğ‘Ÿ</tspan><tspan font-size="24" x="-108.483" y="167.172">ğ¶</tspan><tspan font-size="24" x="-94.1498" y="167.172">ğ‘œğ‘šğ‘ğ‘¢ğ‘ ğ‘¡ğ‘–ğ‘œğ‘›</tspan><tspan font-size="24" x="21.0968" y="167.172"> </tspan><tspan font-size="24" x="26.4301" y="167.172">ğ‘”ğ‘ğ‘ ğ‘’ğ‘ </tspan></text><path d="M149.477 80.7577 176.407 80.7577 176.407 82.7641 149.477 82.7641ZM175.404 78.7513 181.423 81.7609 175.404 84.7705Z" fill="#4472C4" transform="matrix(1 0 0 1.00174 370.175 -34.6708)"/><path d="M0 0 5.26616e-05 27.6346" stroke="#4472C4" stroke-width="2.0064" stroke-miterlimit="8" fill="none" fill-rule="evenodd" transform="matrix(1 0 0 -1.00174 519.652 47.2794)"/><text font-family="Cambria Math,Cambria Math_MSFontService,sans-serif" font-weight="400" font-size="24" transform="matrix(0.501601 0 0 0.502475 507.524 14)">ğ¹<tspan font-size="24" x="14.6667" y="0">ğ‘¢ğ‘’ğ‘™</tspan></text><path d="M325.288 144.712 416.58 144.712 416.58 159.76 325.288 159.76Z" stroke="#000000" stroke-width="1.3376" stroke-miterlimit="8" fill="#A5A5A5" transform="matrix(1 0 0 1.00174 370.175 -34.6708)"/><path d="M256.318 90.7898 291.559 90.7898 291.559 114.654 289.553 114.654 289.553 91.793 290.556 92.7962 256.318 92.7962ZM293.565 113.651 290.556 119.67 287.546 113.651Z" fill="#ED7D31" transform="matrix(1 0 0 1.00174 370.175 -34.6708)"/><path d="M416.329 91.2914 451.57 91.2914 451.57 115.156 449.563 115.156 449.563 92.2946 450.566 93.2978 416.329 93.2978ZM453.576 114.152 450.566 120.172 447.557 114.152Z" fill="#ED7D31" transform="matrix(1 0 0 1.00174 370.175 -34.6708)"/><path d="M2.00623e-06-1.0032 21.3171-1.00316 21.3171 1.00324-2.00623e-06 1.0032ZM20.3139-3.00956 26.3331 5.26616e-05 20.3138 3.00965Z" fill="#4472C4" transform="matrix(1 0 0 -1.00174 685.682 57.2822)"/><path d="M315.507 92.2946 315.507 113.278" stroke="#4472C4" stroke-width="2.0064" stroke-miterlimit="8" fill="none" fill-rule="evenodd" transform="matrix(1 0 0 1.00174 370.175 -34.6708)"/><path d="M267.102 75.4909C267.102 68.8422 272.492 63.4525 279.141 63.4525 285.79 63.4525 291.179 68.8422 291.179 75.4909 291.179 82.1396 285.79 87.5294 279.141 87.5294 272.492 87.5294 267.102 82.1396 267.102 75.4909Z" stroke="#000000" stroke-width="1.3376" stroke-miterlimit="8" fill="none" fill-rule="evenodd" transform="matrix(1 0 0 1.00174 370.175 -34.6708)"/><text font-family="Calibri,Calibri_MSFontService,sans-serif" font-weight="400" font-size="24" transform="matrix(0.501601 0 0 0.502475 645.772 45)">4</text><path d="M103.079 111.606 191.862 132.172 191.862 173.303 103.079 193.869Z" stroke="#000000" stroke-width="1.3376" stroke-miterlimit="8" fill="#4472C4" fill-rule="evenodd" transform="matrix(1 0 0 1.00174 370.175 -34.6708)"/><text fill="#FFFFFF" font-family="Calibri,Calibri_MSFontService,sans-serif" font-weight="400" font-size="24" transform="matrix(0.501601 0 0 0.502475 480.759 122)">Compressor</text><path d="M484.797 193.869 416.58 176.814 416.58 128.661 484.797 111.606Z" stroke="#000000" stroke-width="1.3376" stroke-miterlimit="8" fill="#ED7D31" fill-rule="evenodd" transform="matrix(1 0 0 1.00174 370.175 -34.6708)"/><text fill="#FFFFFF" font-family="Calibri,Calibri_MSFontService,sans-serif" font-weight="400" font-size="24" transform="matrix(0.501601 0 0 0.502475 802.402 122)">Turbine <tspan font-size="24" x="80.9999" y="0">2</tspan></text><path d="M182.332 81.9285C182.332 79.2043 184.54 76.9957 187.265 76.9957L251.637 76.9957C254.36 76.9957 256.569 79.2043 256.569 81.9285L256.569 101.658C256.569 104.382 254.36 106.59 251.637 106.59L187.265 106.59C184.54 106.59 182.332 104.382 182.332 101.658Z" stroke="#000000" stroke-width="1.3376" stroke-miterlimit="8" fill="#FFC000" fill-rule="evenodd" transform="matrix(1 0 0 1.00174 370.175 -34.6708)"/><text fill="#FFFFFF" font-family="Calibri,Calibri_MSFontService,sans-serif" font-weight="400" font-size="24" transform="matrix(0.501601 0 0 0.502475 562.311 61)">Combustor</text><path d="M325.288 193.367 256.569 176.187 256.569 128.284 325.288 111.105Z" stroke="#000000" stroke-width="1.3376" stroke-miterlimit="8" fill="#ED7D31" fill-rule="evenodd" transform="matrix(1 0 0 1.00174 370.175 -34.6708)"/><text fill="#FFFFFF" font-family="Calibri,Calibri_MSFontService,sans-serif" font-weight="400" font-size="24" transform="matrix(0.501601 0 0 0.502475 642.674 122)">Turbine <tspan font-size="24" x="81.0001" y="0">1</tspan></text><path d="M341.841 82.0117C341.841 79.2414 344.087 76.9957 346.857 76.9957L411.564 76.9957C414.334 76.9957 416.58 79.2414 416.58 82.0117L416.58 102.076C416.58 104.846 414.334 107.092 411.564 107.092L346.857 107.092C344.087 107.092 341.841 104.846 341.841 102.076Z" stroke="#000000" stroke-width="1.3376" stroke-miterlimit="8" fill="#FFC000" fill-rule="evenodd" transform="matrix(1 0 0 1.00174 370.175 -34.6708)"/><text fill="#FFFFFF" font-family="Calibri,Calibri_MSFontService,sans-serif" font-weight="400" font-size="24" transform="matrix(0.501601 0 0 0.502475 726.862 61)">Reheater</text></g></g></g></g><text font-family="Calibri,Calibri_MSFontService,sans-serif" font-weight="700" font-size="24" transform="translate(138.6 248)">Recuperator<tspan font-size="24" x="482" y="0">Reheat</tspan><tspan font-size="24" x="912.058" y="0">Intercooling</tspan></text><g clip-path="url(#clip5)"><g clip-path="url(#clip6)"><g clip-path="url(#clip7)"><g clip-path="url(#clip8)"><path d="M187.524 141.93 277.242 141.93 277.242 156.638 187.524 156.638Z" stroke="#000000" stroke-width="1.30736" stroke-miterlimit="8" fill="#A5A5A5" transform="matrix(1 0 0 1.00052 859.419 -36.5799)"/><text fill="#FFFFFF" font-family="Calibri,Calibri_MSFontService,sans-serif" font-weight="400" font-size="24" transform="matrix(0.49026 0 0 0.490515 1079.77 116)">shaft</text><path d="M0.980519-1.09465e-06 0.980564 41.2017-0.980475 41.2017-0.980519 1.09465e-06ZM2.9416 40.2212 5.14709e-05 46.1043-2.94151 40.2212Z" fill="#4472C4" transform="matrix(1 0 0 -1.00052 1003.56 189.077)"/><path d="M143.156 118.858 143.156 79.9123 187.799 79.9123 187.799 81.8734 144.136 81.8734 145.117 80.8929 145.117 118.858ZM186.819 77.9513 192.702 80.8929 186.819 83.8344Z" fill="#4472C4" transform="matrix(1 0 0 1.00052 859.419 -36.5799)"/><path d="M100.748 213.998C100.748 207.5 106.016 202.232 112.515 202.232 119.013 202.232 124.281 207.5 124.281 213.998 124.281 220.497 119.013 225.765 112.515 225.765 106.016 225.765 100.748 220.497 100.748 213.998Z" stroke="#000000" stroke-width="1.30736" stroke-miterlimit="8" fill="none" fill-rule="evenodd" transform="matrix(1 0 0 1.00052 859.419 -36.5799)"/><text font-family="Calibri,Calibri_MSFontService,sans-serif" font-weight="400" font-size="24" transform="matrix(0.49026 0 0 0.490515 968.81 181)">2</text><path d="M347.839 60.5471C347.839 54.0487 353.107 48.7809 359.606 48.7809 366.104 48.7809 371.372 54.0487 371.372 60.5471 371.372 67.0455 366.104 72.3133 359.606 72.3133 353.107 72.3133 347.839 67.0455 347.839 60.5471Z" stroke="#000000" stroke-width="1.30736" stroke-miterlimit="8" fill="none" fill-rule="evenodd" transform="matrix(1 0 0 1.00052 859.419 -36.5799)"/><text font-family="Calibri,Calibri_MSFontService,sans-serif" font-weight="400" font-size="24" transform="matrix(0.49026 0 0 0.490515 1215.66 28)">5<tspan font-family="Cambria Math,Cambria Math_MSFontService,sans-serif" font-size="24" x="-415.857" y="307.84">ğ´</tspan><tspan font-family="Cambria Math,Cambria Math_MSFontService,sans-serif" font-size="24" x="-400.69" y="307.84">ğ‘–ğ‘Ÿ</tspan></text><path d="M192.917 66.9205 258.612 66.9205 258.612 95.3555 192.917 95.3555Z" stroke="#000000" stroke-width="1.30736" stroke-miterlimit="8" fill="#E7E6E6" transform="matrix(1 0 0 1.00052 859.419 -36.5799)"/><text font-family="Calibri,Calibri_MSFontService,sans-serif" font-weight="400" font-size="24" transform="matrix(0.49026 0 0 0.490515 1058.6 48)">Intercooler</text><path d="M258.367 79.9123 321.529 79.9123 321.529 113.955 319.568 113.955 319.568 80.8929 320.548 81.8734 258.367 81.8734ZM323.49 112.975 320.548 118.858 317.607 112.975Z" fill="#4472C4" transform="matrix(1 0 0 1.00052 859.419 -36.5799)"/><path d="M364.018 141.93 392.453 141.93 392.453 156.638 364.018 156.638Z" stroke="#000000" stroke-width="1.30736" stroke-miterlimit="8" fill="#A5A5A5" transform="matrix(1 0 0 1.00052 859.419 -36.5799)"/><path d="M143.891 60.5471C143.891 54.0487 149.159 48.7809 155.657 48.7809 162.156 48.7809 167.424 54.0487 167.424 60.5471 167.424 67.0455 162.156 72.3133 155.657 72.3133 149.159 72.3133 143.891 67.0455 143.891 60.5471Z" stroke="#000000" stroke-width="1.30736" stroke-miterlimit="8" fill="none" fill-rule="evenodd" transform="matrix(1 0 0 1.00052 859.419 -36.5799)"/><text font-family="Calibri,Calibri_MSFontService,sans-serif" font-weight="400" font-size="24" transform="matrix(0.49026 0 0 0.490515 1012.05 28)">3</text><path d="M297.343 60.5471C297.343 54.0487 302.61 48.7809 309.109 48.7809 315.607 48.7809 320.875 54.0487 320.875 60.5471 320.875 67.0455 315.607 72.3133 309.109 72.3133 302.61 72.3133 297.343 67.0455 297.343 60.5471Z" stroke="#000000" stroke-width="1.30736" stroke-miterlimit="8" fill="none" fill-rule="evenodd" transform="matrix(1 0 0 1.00052 859.419 -36.5799)"/><text font-family="Calibri,Calibri_MSFontService,sans-serif" font-weight="400" font-size="24" transform="matrix(0.49026 0 0 0.490515 1165.24 28)">4</text><path d="M0 0 5.14709e-05 45.7576" stroke="#4472C4" stroke-width="1.96104" stroke-miterlimit="8" fill="none" fill-rule="evenodd" transform="matrix(1 0 0 -1.00052 1207.01 88.6647)"/><path d="M347.594 78.4416 387.442 78.4416 387.442 80.4026 347.594 80.4026ZM386.462 76.4805 392.345 79.4221 386.462 82.3636Z" fill="#4472C4" transform="matrix(1 0 0 1.00052 859.419 -36.5799)"/><path d="M277.242 109.083 364.018 129.183 364.018 169.385 277.242 189.485Z" stroke="#000000" stroke-width="1.30736" stroke-miterlimit="8" fill="#4472C4" fill-rule="evenodd" transform="matrix(1 0 0 1.00052 859.419 -36.5799)"/><text fill="#FFFFFF" font-family="Calibri,Calibri_MSFontService,sans-serif" font-weight="400" font-size="24" transform="matrix(0.49026 0 0 0.490515 1139.74 116)">Compressor <tspan font-size="24" x="122" y="0">2</tspan></text><path d="M100.748 109.083 187.524 129.183 187.524 169.385 100.748 189.485Z" stroke="#000000" stroke-width="1.30736" stroke-miterlimit="8" fill="#4472C4" fill-rule="evenodd" transform="matrix(1 0 0 1.00052 859.419 -36.5799)"/><text fill="#FFFFFF" font-family="Calibri,Calibri_MSFontService,sans-serif" font-weight="400" font-size="24" transform="matrix(0.49026 0 0 0.490515 963.172 116)">Compressor <tspan font-size="24" x="122" y="0">1</tspan></text></g></g></g></g><g clip-path="url(#clip9)"><g clip-path="url(#clip10)"><g clip-path="url(#clip11)"><g clip-path="url(#clip12)"><path d="M192.723 145.865 397.79 145.865 397.79 160.98 192.723 160.98Z" stroke="#000000" stroke-width="1.3436" stroke-miterlimit="8" fill="#A5A5A5" transform="matrix(1 0 0 1.00243 -102.282 -35.901)"/><text fill="#FFFFFF" font-family="Calibri,Calibri_MSFontService,sans-serif" font-weight="400" font-size="24" transform="matrix(0.50385 0 0 0.505076 180.588 121)">shaft</text><path d="M1.0077-1.125e-06 1.00775 42.3438-1.00766 42.3438-1.0077 1.125e-06ZM3.02315 41.3361 5.28977e-05 47.3823-3.02306 41.3361Z" fill="#4472C4" transform="matrix(1 0 0 -1.00243 45.8504 196.455)"/><path d="M307.097 80.2805C307.097 77.5441 309.315 75.3256 312.051 75.3256L377.216 75.3256C379.952 75.3256 382.171 77.5441 382.171 80.2805L382.171 100.098C382.171 102.834 379.952 105.053 377.216 105.053L312.051 105.053C309.315 105.053 307.097 102.834 307.097 100.098Z" stroke="#000000" stroke-width="1.3436" stroke-miterlimit="8" fill="#FFC000" fill-rule="evenodd" transform="matrix(1 0 0 1.00243 -102.282 -35.901)"/><text fill="#FFFFFF" font-family="Calibri,Calibri_MSFontService,sans-serif" font-weight="400" font-size="24" transform="matrix(0.50385 0 0 0.505076 215.117 58)">Combustor</text><path d="M443.388 183.905 443.388 226.804 441.373 226.804 441.373 183.905ZM445.404 225.797 442.381 231.843 439.358 225.797Z" transform="matrix(1 0 0 1.00243 -102.282 -35.901)"/><path d="M103.541 219.931C103.541 213.252 108.955 207.838 115.634 207.838 122.312 207.838 127.726 213.252 127.726 219.931 127.726 226.609 122.312 232.023 115.634 232.023 108.955 232.023 103.541 226.609 103.541 219.931Z" stroke="#000000" stroke-width="1.3436" stroke-miterlimit="8" fill="none" fill-rule="evenodd" transform="matrix(1 0 0 1.00243 -102.282 -35.901)"/><text font-family="Calibri,Calibri_MSFontService,sans-serif" font-weight="400" font-size="24" transform="matrix(0.50385 0 0 0.505076 10.1415 188)">2</text><path d="M134.78 63.7371C134.78 57.0585 140.194 51.6447 146.872 51.6447 153.551 51.6447 158.965 57.0585 158.965 63.7371 158.965 70.4156 153.551 75.8295 146.872 75.8295 140.194 75.8295 134.78 70.4156 134.78 63.7371Z" stroke="#000000" stroke-width="1.3436" stroke-miterlimit="8" fill="none" fill-rule="evenodd" transform="matrix(1 0 0 1.00243 -102.282 -35.901)"/><text font-family="Calibri,Calibri_MSFontService,sans-serif" font-weight="400" font-size="24" transform="matrix(0.50385 0 0 0.505076 41.1273 32)">3</text><path d="M406.859 219.931C406.859 213.252 412.273 207.838 418.952 207.838 425.63 207.838 431.044 213.252 431.044 219.931 431.044 226.609 425.63 232.023 418.952 232.023 412.273 232.023 406.859 226.609 406.859 219.931Z" stroke="#000000" stroke-width="1.3436" stroke-miterlimit="8" fill="none" fill-rule="evenodd" transform="matrix(1 0 0 1.00243 -102.282 -35.901)"/><text font-family="Calibri,Calibri_MSFontService,sans-serif" font-weight="400" font-size="24" transform="matrix(0.50385 0 0 0.505076 313.494 188)">5</text><path d="M400.309 110.091C400.309 103.413 405.723 97.9989 412.402 97.9989 419.08 97.9989 424.494 103.413 424.494 110.091 424.494 116.77 419.08 122.184 412.402 122.184 405.723 122.184 400.309 116.77 400.309 110.091Z" stroke="#000000" stroke-width="1.3436" stroke-miterlimit="8" fill="none" fill-rule="evenodd" transform="matrix(1 0 0 1.00243 -102.282 -35.901)"/><text font-family="Calibri,Calibri_MSFontService,sans-serif" font-weight="400" font-size="24" transform="matrix(0.50385 0 0 0.505076 306.819 78)">4</text><path d="M486.971 145.865 502.591 145.865 502.591 160.98 486.971 160.98Z" stroke="#000000" stroke-width="1.3436" stroke-miterlimit="8" fill="#A5A5A5" transform="matrix(1 0 0 1.00243 -102.282 -35.901)"/><path d="M0.0151782-1.67943 28.0296-1.42625 27.9992 1.93262-0.0151782 1.67943ZM26.3805-4.80029 36.4116 0.329076 26.2895 5.27632Z" fill="#70AD47" transform="matrix(1 0 0 -1.00243 400.309 117.719)"/><text font-family="Cambria Math,Cambria Math_MSFontService,sans-serif" font-weight="400" font-size="29" transform="matrix(0.50385 0 0 0.505076 407.937 100)">ğ‘Š</text><path d="M-2.05476-8.24047C-2.28307-8.24047-2.47333-8.32013-2.62553-8.47945-2.77774-8.63882-2.85384-8.83975-2.85384-9.08236-2.85384-9.32491-2.77774-9.5259-2.62553-9.68521-2.47333-9.84458-2.28307-9.92424-2.05476-9.92424-1.83121-9.92424-1.64334-9.84458-1.49113-9.68521-1.33893-9.5259-1.26283-9.32491-1.26283-9.08236-1.26283-8.83975-1.33893-8.63882-1.49113-8.47945-1.64334-8.32013-1.83121-8.24047-2.05476-8.24047Z" transform="matrix(1 0 0 1.00243 417.752 96.934)"/><text font-family="Cambria Math,Cambria Math_MSFontService,sans-serif" font-weight="400" font-size="21" transform="matrix(0.50385 0 0 0.505076 420 103)">ğ‘›ğ‘’ğ‘¡<tspan font-size="24" x="-725.796" y="164.332">ğ´</tspan><tspan font-size="24" x="-710.629" y="164.332">ğ‘–ğ‘Ÿ</tspan><tspan font-size="24" x="-136.082" y="164.332">ğ¶</tspan><tspan font-size="24" x="-121.749" y="164.332">ğ‘œğ‘šğ‘ğ‘¢ğ‘ ğ‘¡ğ‘–ğ‘œğ‘›</tspan><tspan font-size="24" x="-6.50193" y="164.332"> </tspan><tspan font-size="24" x="-1.16867" y="164.332">ğ‘”ğ‘ğ‘ ğ‘’ğ‘ </tspan></text><path d="M225.725 96.7393 302.132 96.7393 302.132 98.7547 225.725 98.7547ZM301.125 94.7239 307.171 97.747 301.125 100.77Z" fill="#4472C4" transform="matrix(1 0 0 1.00243 -102.282 -35.901)"/><path d="M0 0 5.28977e-05 30.3881" stroke="#4472C4" stroke-width="2.0154" stroke-miterlimit="8" fill="none" fill-rule="evenodd" transform="matrix(1 0 0 -1.00243 123.443 92.5459)"/><text font-family="Cambria Math,Cambria Math_MSFontService,sans-serif" font-weight="400" font-size="24" transform="matrix(0.50385 0 0 0.505076 127.698 90)">ğ¹<tspan font-size="24" x="14.6667" y="0">ğ‘¢ğ‘’ğ‘™</tspan></text><path d="M224.465 60.2101 288.454 60.2101 288.454 90.4411 224.465 90.4411Z" stroke="#000000" stroke-width="1.3436" stroke-miterlimit="8" fill="#C55A11" fill-opacity="0.94902" transform="matrix(1 0 0 1.00243 -102.282 -35.901)"/><path d="M147.124 121.945 147.124 82.1276 302.179 82.1276 302.179 84.143 148.132 84.143 149.14 83.1353 149.14 121.945ZM301.171 80.1122 307.217 83.1353 301.171 86.1584Z" fill="#4472C4" transform="matrix(1 0 0 1.00243 -102.282 -35.901)"/><path d="M2.00674e-07-1.0077 260.591-1.00765 260.591 1.00775-2.00674e-07 1.0077ZM259.584-3.02305 265.63 5.28977e-05 259.584 3.02315Z" fill="#ED7D31" transform="matrix(-1 0 0 1.00243 359.85 33.7995)"/><path d="M462.535 69.5314 462.535 118.729" stroke="#ED7D31" stroke-width="2.0154" stroke-miterlimit="8" fill="none" fill-rule="evenodd" transform="matrix(1 0 0 1.00243 -102.282 -35.901)"/><text font-family="Calibri,Calibri_MSFontService,sans-serif" font-weight="400" font-size="24" transform="matrix(0.50385 0 0 0.505076 123.296 19)">Regenerator</text><path d="M381.919 88.6777 443.154 88.6777 443.154 117.115 441.139 117.115 441.139 89.6854 442.146 90.6931 381.919 90.6931ZM445.169 116.107 442.146 122.153 439.123 116.107Z" fill="#ED7D31" transform="matrix(1 0 0 1.00243 -102.282 -35.901)"/><path d="M103.541 112.107 192.723 132.765 192.723 174.08 103.541 194.738Z" stroke="#000000" stroke-width="1.3436" stroke-miterlimit="8" fill="#4472C4" fill-rule="evenodd" transform="matrix(1 0 0 1.00243 -102.282 -35.901)"/><text fill="#FFFFFF" font-family="Calibri,Calibri_MSFontService,sans-serif" font-weight="400" font-size="24" transform="matrix(0.50385 0 0 0.505076 8.79824 121)">Compressor</text><path d="M486.971 194.738 397.79 174.08 397.79 132.765 486.971 112.107Z" stroke="#000000" stroke-width="1.3436" stroke-miterlimit="8" fill="#ED7D31" fill-rule="evenodd" transform="matrix(1 0 0 1.00243 -102.282 -35.901)"/><text fill="#FFFFFF" font-family="Calibri,Calibri_MSFontService,sans-serif" font-weight="400" font-size="24" transform="matrix(0.50385 0 0 0.505076 328.785 121)">Turbine</text></g></g></g></g></g></svg>