<svg width="909" height="404" xmlns="http://www.w3.org/2000/svg" xmlns:xlink="http://www.w3.org/1999/xlink" overflow="hidden"><defs><clipPath id="clip0"><rect x="203" y="69" width="909" height="404"/></clipPath></defs><g clip-path="url(#clip0)" transform="translate(-203 -69)"><rect x="382.5" y="289.5" width="407" height="30" stroke="#000000" stroke-width="2.66667" stroke-miterlimit="8" fill="#A5A5A5"/><text fill="#FFFFFF" font-family="Calibri,Calibri_MSFontService,sans-serif" font-weight="400" font-size="24" transform="translate(561.415 311)">shaft</text><path d="M2-2.2328e-06 2.00009 84.0405-1.99991 84.0405-2 2.2328e-06ZM6.00009 82.0405 0.000104987 94.0405-5.99991 82.0405Z" fill="#4472C4" transform="matrix(1 0 0 -1 294 460.041)"/><path d="M292 242.222 292 181 501.637 181 501.637 185 294 185 296 183 296 242.222ZM499.637 177 511.637 183 499.637 189Z" fill="#4472C4"/><path d="M880 365 880 450.142 876 450.142 876 365ZM884 448.142 878 460.142 872 448.142Z"/><path d="M660 181 879.637 181 879.637 232.222 875.637 232.222 875.637 183 877.637 185 660 185ZM883.637 230.222 877.637 242.222 871.637 230.222Z" fill="#ED7D31"/><path d="M205.5 436.5C205.5 423.245 216.245 412.5 229.5 412.5 242.755 412.5 253.5 423.245 253.5 436.5 253.5 449.755 242.755 460.5 229.5 460.5 216.245 460.5 205.5 449.755 205.5 436.5Z" stroke="#000000" stroke-width="2.66667" stroke-miterlimit="8" fill="none" fill-rule="evenodd"/><text font-family="Calibri,Calibri_MSFontService,sans-serif" font-weight="400" font-size="24" transform="translate(223.128 444)">2</text><path d="M294.5 140.5C294.5 127.245 305.245 116.5 318.5 116.5 331.755 116.5 342.5 127.245 342.5 140.5 342.5 153.755 331.755 164.5 318.5 164.5 305.245 164.5 294.5 153.755 294.5 140.5Z" stroke="#000000" stroke-width="2.66667" stroke-miterlimit="8" fill="none" fill-rule="evenodd"/><text font-family="Calibri,Calibri_MSFontService,sans-serif" font-weight="400" font-size="24" transform="translate(311.641 147)">3</text><path d="M807.5 436.5C807.5 423.245 818.245 412.5 831.5 412.5 844.755 412.5 855.5 423.245 855.5 436.5 855.5 449.755 844.755 460.5 831.5 460.5 818.245 460.5 807.5 449.755 807.5 436.5Z" stroke="#000000" stroke-width="2.66667" stroke-miterlimit="8" fill="none" fill-rule="evenodd"/><text font-family="Calibri,Calibri_MSFontService,sans-serif" font-weight="400" font-size="24" transform="translate(825.196 444)">5</text><path d="M830.5 140.5C830.5 127.245 841.245 116.5 854.5 116.5 867.755 116.5 878.5 127.245 878.5 140.5 878.5 153.755 867.755 164.5 854.5 164.5 841.245 164.5 830.5 153.755 830.5 140.5Z" stroke="#000000" stroke-width="2.66667" stroke-miterlimit="8" fill="none" fill-rule="evenodd"/><text font-family="Calibri,Calibri_MSFontService,sans-serif" font-weight="400" font-size="24" transform="translate(847.715 147)">4</text><rect x="966.5" y="289.5" width="31" height="30" stroke="#000000" stroke-width="2.66667" stroke-miterlimit="8" fill="#A5A5A5"/><path d="M0.0301244-3.3332 55.6308-2.8307 55.5705 3.8357-0.0301244 3.3332ZM52.3579-9.52721 72.2667 0.653123 52.1771 10.472Z" fill="#70AD47" transform="matrix(1 0 0 -1 997.5 304.153)"/><text font-family="Cambria Math,Cambria Math_MSFontService,sans-serif" font-weight="400" font-size="29" transform="translate(1012.64 269)">ğ‘Š</text><path d="M-4.07812-16.355C-4.53125-16.355-4.90885-16.5131-5.21094-16.8293-5.51302-17.1456-5.66406-17.5444-5.66406-18.0259-5.66406-18.5073-5.51302-18.9062-5.21094-19.2224-4.90885-19.5387-4.53125-19.6968-4.07812-19.6968-3.63444-19.6968-3.26156-19.5387-2.95947-19.2224-2.65739-18.9062-2.50635-18.5073-2.50635-18.0259-2.50635-17.5444-2.65739-17.1456-2.95947-16.8293-3.26156-16.5131-3.63444-16.355-4.07812-16.355Z" transform="translate(1032.12 263)"/><text font-family="Cambria Math,Cambria Math_MSFontService,sans-serif" font-weight="400" font-size="21" transform="translate(1036.58 275)">ğ‘›ğ‘’ğ‘¡<tspan font-size="24" x="-725.796" y="165">ğ´</tspan><tspan font-size="24" x="-710.629" y="165">ğ‘–ğ‘Ÿ</tspan><tspan font-size="24" x="-136.082" y="165">ğ¶</tspan><tspan font-size="24" x="-121.749" y="165">ğ‘œğ‘šğ‘ğ‘¢ğ‘ ğ‘¡ğ‘–ğ‘œğ‘›</tspan><tspan font-size="24" x="-6.50195" y="165"> </tspan><tspan font-size="24" x="-1.1687" y="165">ğ‘”ğ‘ğ‘ ğ‘’ğ‘ </tspan></text><path d="M448 162 501.688 162 501.688 166 448 166ZM499.688 158 511.688 164 499.688 170Z" fill="#4472C4"/><path d="M0 0 0.000104987 55.0929" stroke="#4472C4" stroke-width="4" stroke-miterlimit="8" fill="none" fill-rule="evenodd" transform="matrix(1 0 0 -1 448 164.093)"/><text font-family="Cambria Math,Cambria Math_MSFontService,sans-serif" font-weight="400" font-size="24" transform="translate(423.302 98)">ğ¹<tspan font-size="24" x="14.6667" y="0">ğ‘¢ğ‘’ğ‘™</tspan></text><path d="M205.5 222.5 382.5 263.5 382.5 345.5 205.5 386.5Z" stroke="#000000" stroke-width="2.66667" stroke-miterlimit="8" fill="#4472C4" fill-rule="evenodd"/><text fill="#FFFFFF" font-family="Calibri,Calibri_MSFontService,sans-serif" font-weight="400" font-size="24" transform="translate(220.463 311)">Compressor</text><path d="M966.5 386.5 789.5 345.5 789.5 263.5 966.5 222.5Z" stroke="#000000" stroke-width="2.66667" stroke-miterlimit="8" fill="#ED7D31" fill-rule="evenodd"/><text fill="#FFFFFF" font-family="Calibri,Calibri_MSFontService,sans-serif" font-weight="400" font-size="24" transform="translate(855.544 311)">Turbine</text><path d="M511.5 164.334C511.5 158.903 515.903 154.5 521.333 154.5L650.667 154.5C656.097 154.5 660.5 158.903 660.5 164.334L660.5 203.667C660.5 209.097 656.097 213.5 650.667 213.5L521.333 213.5C515.903 213.5 511.5 209.097 511.5 203.667Z" stroke="#000000" stroke-width="2.66667" stroke-miterlimit="8" fill="#FFC000" fill-rule="evenodd"/><text fill="#FFFFFF" font-family="Calibri,Calibri_MSFontService,sans-serif" font-weight="400" font-size="24" transform="translate(531.845 191)">Combustor</text></g></svg>