<svg width="616" height="369" xmlns="http://www.w3.org/2000/svg" xmlns:xlink="http://www.w3.org/1999/xlink" overflow="hidden"><defs><clipPath id="clip0"><rect x="197" y="97" width="616" height="369"/></clipPath></defs><g clip-path="url(#clip0)" transform="translate(-197 -97)"><rect x="382.5" y="289.5" width="183" height="30" stroke="#000000" stroke-width="2.66667" stroke-miterlimit="8" fill="#A5A5A5"/><text fill="#FFFFFF" font-family="Calibri,Calibri_MSFontService,sans-serif" font-weight="400" font-size="24" transform="translate(449.459 311)">shaft</text><path d="M2-2.2328e-06 2.00009 84.0405-1.99991 84.0405-2 2.2328e-06ZM6.00009 82.0405 0.000104987 94.0405-5.99991 82.0405Z" fill="#4472C4" transform="matrix(1 0 0 -1 294 460.041)"/><path d="M292 242.439 292 163 383.061 163 383.061 167 294 167 296 165 296 242.439ZM381.061 159 393.061 165 381.061 171Z" fill="#4472C4"/><path d="M205.5 436.5C205.5 423.245 216.245 412.5 229.5 412.5 242.755 412.5 253.5 423.245 253.5 436.5 253.5 449.755 242.755 460.5 229.5 460.5 216.245 460.5 205.5 449.755 205.5 436.5Z" stroke="#000000" stroke-width="2.66667" stroke-miterlimit="8" fill="none" fill-rule="evenodd"/><text font-family="Calibri,Calibri_MSFontService,sans-serif" font-weight="400" font-size="24" transform="translate(223.128 444)">2</text><path d="M709.5 123.5C709.5 110.245 720.245 99.5001 733.5 99.5001 746.755 99.5001 757.5 110.245 757.5 123.5 757.5 136.755 746.755 147.5 733.5 147.5 720.245 147.5 709.5 136.755 709.5 123.5Z" stroke="#000000" stroke-width="2.66667" stroke-miterlimit="8" fill="none" fill-rule="evenodd"/><text font-family="Calibri,Calibri_MSFontService,sans-serif" font-weight="400" font-size="24" transform="translate(726.637 131)">5<tspan font-family="Cambria Math,Cambria Math_MSFontService,sans-serif" font-size="24" x="-415.857" y="309">ğ´</tspan><tspan font-family="Cambria Math,Cambria Math_MSFontService,sans-serif" font-size="24" x="-400.69" y="309">ğ‘–ğ‘Ÿ</tspan></text><rect x="393.5" y="136.5" width="134" height="58" stroke="#000000" stroke-width="2.66667" stroke-miterlimit="8" fill="#E7E6E6"/><text font-family="Calibri,Calibri_MSFontService,sans-serif" font-weight="400" font-size="24" transform="translate(406.269 173)">Intercooler</text><path d="M527 163 655.834 163 655.834 232.439 651.834 232.439 651.834 165 653.834 167 527 167ZM659.834 230.439 653.834 242.439 647.834 230.439Z" fill="#4472C4"/><rect x="742.5" y="289.5" width="58" height="30" stroke="#000000" stroke-width="2.66667" stroke-miterlimit="8" fill="#A5A5A5"/><path d="M293.5 123.5C293.5 110.245 304.245 99.5001 317.5 99.5001 330.755 99.5001 341.5 110.245 341.5 123.5 341.5 136.755 330.755 147.5 317.5 147.5 304.245 147.5 293.5 136.755 293.5 123.5Z" stroke="#000000" stroke-width="2.66667" stroke-miterlimit="8" fill="none" fill-rule="evenodd"/><text font-family="Calibri,Calibri_MSFontService,sans-serif" font-weight="400" font-size="24" transform="translate(311.32 131)">3</text><path d="M606.5 123.5C606.5 110.245 617.245 99.5001 630.5 99.5001 643.755 99.5001 654.5 110.245 654.5 123.5 654.5 136.755 643.755 147.5 630.5 147.5 617.245 147.5 606.5 136.755 606.5 123.5Z" stroke="#000000" stroke-width="2.66667" stroke-miterlimit="8" fill="none" fill-rule="evenodd"/><text font-family="Calibri,Calibri_MSFontService,sans-serif" font-weight="400" font-size="24" transform="translate(623.803 131)">4</text><path d="M0 0 0.000104987 93.3333" stroke="#4472C4" stroke-width="4" stroke-miterlimit="8" fill="none" fill-rule="evenodd" transform="matrix(1 0 0 -1 709 255.333)"/><path d="M709 160 790.28 160 790.28 164 709 164ZM788.28 156 800.28 162 788.28 168Z" fill="#4472C4"/><path d="M565.5 222.5 742.5 263.5 742.5 345.5 565.5 386.5Z" stroke="#000000" stroke-width="2.66667" stroke-miterlimit="8" fill="#4472C4" fill-rule="evenodd"/><text fill="#FFFFFF" font-family="Calibri,Calibri_MSFontService,sans-serif" font-weight="400" font-size="24" transform="translate(571.791 311)">Compressor 2</text><path d="M205.5 222.5 382.5 263.5 382.5 345.5 205.5 386.5Z" stroke="#000000" stroke-width="2.66667" stroke-miterlimit="8" fill="#4472C4" fill-rule="evenodd"/><text fill="#FFFFFF" font-family="Calibri,Calibri_MSFontService,sans-serif" font-weight="400" font-size="24" transform="translate(211.629 311)">Compressor 1</text></g></svg>