<svg width="909" height="394" xmlns="http://www.w3.org/2000/svg" xmlns:xlink="http://www.w3.org/1999/xlink" overflow="hidden"><defs><clipPath id="clip0"><rect x="203" y="79" width="909" height="394"/></clipPath></defs><g clip-path="url(#clip0)" transform="translate(-203 -79)"><rect x="382.5" y="289.5" width="407" height="30" stroke="#000000" stroke-width="2.66667" stroke-miterlimit="8" fill="#A5A5A5"/><text fill="#FFFFFF" font-family="Calibri,Calibri_MSFontService,sans-serif" font-weight="400" font-size="24" transform="translate(561.415 311)">shaft</text><path d="M2-2.2328e-06 2.00009 84.0405-1.99991 84.0405-2 2.2328e-06ZM6.00009 82.0405 0.000104987 94.0405-5.99991 82.0405Z" fill="#4472C4" transform="matrix(1 0 0 -1 294 460.041)"/><path d="M609.5 159.334C609.5 153.903 613.903 149.5 619.333 149.5L748.667 149.5C754.097 149.5 758.5 153.903 758.5 159.334L758.5 198.667C758.5 204.097 754.097 208.5 748.667 208.5L619.333 208.5C613.903 208.5 609.5 204.097 609.5 198.667Z" stroke="#000000" stroke-width="2.66667" stroke-miterlimit="8" fill="#FFC000" fill-rule="evenodd"/><text fill="#FFFFFF" font-family="Calibri,Calibri_MSFontService,sans-serif" font-weight="400" font-size="24" transform="translate(629.947 186)">Combustor</text><path d="M880 365 880 450.142 876 450.142 876 365ZM884 448.142 878 460.142 872 448.142Z"/><path d="M205.5 436.5C205.5 423.245 216.245 412.5 229.5 412.5 242.755 412.5 253.5 423.245 253.5 436.5 253.5 449.755 242.755 460.5 229.5 460.5 216.245 460.5 205.5 449.755 205.5 436.5Z" stroke="#000000" stroke-width="2.66667" stroke-miterlimit="8" fill="none" fill-rule="evenodd"/><text font-family="Calibri,Calibri_MSFontService,sans-serif" font-weight="400" font-size="24" transform="translate(223.128 444)">2</text><path d="M267.5 126.5C267.5 113.245 278.245 102.5 291.5 102.5 304.755 102.5 315.5 113.245 315.5 126.5 315.5 139.755 304.755 150.5 291.5 150.5 278.245 150.5 267.5 139.755 267.5 126.5Z" stroke="#000000" stroke-width="2.66667" stroke-miterlimit="8" fill="none" fill-rule="evenodd"/><text font-family="Calibri,Calibri_MSFontService,sans-serif" font-weight="400" font-size="24" transform="translate(284.626 134)">3</text><path d="M807.5 436.5C807.5 423.245 818.245 412.5 831.5 412.5 844.755 412.5 855.5 423.245 855.5 436.5 855.5 449.755 844.755 460.5 831.5 460.5 818.245 460.5 807.5 449.755 807.5 436.5Z" stroke="#000000" stroke-width="2.66667" stroke-miterlimit="8" fill="none" fill-rule="evenodd"/><text font-family="Calibri,Calibri_MSFontService,sans-serif" font-weight="400" font-size="24" transform="translate(825.196 444)">5</text><path d="M794.5 218.5C794.5 205.245 805.245 194.5 818.5 194.5 831.755 194.5 842.5 205.245 842.5 218.5 842.5 231.755 831.755 242.5 818.5 242.5 805.245 242.5 794.5 231.755 794.5 218.5Z" stroke="#000000" stroke-width="2.66667" stroke-miterlimit="8" fill="none" fill-rule="evenodd"/><text font-family="Calibri,Calibri_MSFontService,sans-serif" font-weight="400" font-size="24" transform="translate(811.948 225)">4</text><rect x="966.5" y="289.5" width="31" height="30" stroke="#000000" stroke-width="2.66667" stroke-miterlimit="8" fill="#A5A5A5"/><path d="M0.0301244-3.3332 55.6308-2.8307 55.5705 3.8357-0.0301244 3.3332ZM52.3579-9.52721 72.2667 0.653123 52.1771 10.472Z" fill="#70AD47" transform="matrix(1 0 0 -1 997.5 304.153)"/><text font-family="Cambria Math,Cambria Math_MSFontService,sans-serif" font-weight="400" font-size="29" transform="translate(1012.64 269)">ğ‘Š</text><path d="M-4.07812-16.355C-4.53125-16.355-4.90885-16.5131-5.21094-16.8293-5.51302-17.1456-5.66406-17.5444-5.66406-18.0259-5.66406-18.5073-5.51302-18.9062-5.21094-19.2224-4.90885-19.5387-4.53125-19.6968-4.07812-19.6968-3.63444-19.6968-3.26156-19.5387-2.95947-19.2224-2.65739-18.9062-2.50635-18.5073-2.50635-18.0259-2.50635-17.5444-2.65739-17.1456-2.95947-16.8293-3.26156-16.5131-3.63444-16.355-4.07812-16.355Z" transform="translate(1032.12 263)"/><text font-family="Cambria Math,Cambria Math_MSFontService,sans-serif" font-weight="400" font-size="21" transform="translate(1036.58 275)">ğ‘›ğ‘’ğ‘¡<tspan font-size="24" x="-725.796" y="165">ğ´</tspan><tspan font-size="24" x="-710.629" y="165">ğ‘–ğ‘Ÿ</tspan><tspan font-size="24" x="-136.082" y="165">ğ¶</tspan><tspan font-size="24" x="-121.749" y="165">ğ‘œğ‘šğ‘ğ‘¢ğ‘ ğ‘¡ğ‘–ğ‘œğ‘›</tspan><tspan font-size="24" x="-6.50195" y="165"> </tspan><tspan font-size="24" x="-1.1687" y="165">ğ‘”ğ‘ğ‘ ğ‘’ğ‘ </tspan></text><path d="M448 192 599.647 192 599.647 196 448 196ZM597.647 188 609.647 194 597.647 200Z" fill="#4472C4"/><path d="M0 0 0.000104987 60.3117" stroke="#4472C4" stroke-width="4" stroke-miterlimit="8" fill="none" fill-rule="evenodd" transform="matrix(1 0 0 -1 448 254.312)"/><text font-family="Cambria Math,Cambria Math_MSFontService,sans-serif" font-weight="400" font-size="24" transform="translate(456.445 250)">ğ¹<tspan font-size="24" x="14.6667" y="0">ğ‘¢ğ‘’ğ‘™</tspan></text><rect x="445.5" y="119.5" width="127" height="60" stroke="#000000" stroke-width="2.66667" stroke-miterlimit="8" fill="#C55A11" fill-opacity="0.94902"/><path d="M292 242.026 292 163 599.739 163 599.739 167 294 167 296 165 296 242.026ZM597.739 159 609.739 165 597.739 171Z" fill="#4472C4"/><path d="M3.98281e-07-2 517.2-1.9999 517.2 2.0001-3.98281e-07 2ZM515.2-5.9999 527.2 0.000104987 515.2 6.0001Z" fill="#ED7D31" transform="matrix(-1 0 0 1 917.2 138)"/><path d="M918 138 918 235.644" stroke="#ED7D31" stroke-width="4" stroke-miterlimit="8" fill="none" fill-rule="evenodd"/><text font-family="Calibri,Calibri_MSFontService,sans-serif" font-weight="400" font-size="24" transform="translate(447.707 109)">Regenerator</text><path d="M758 176 879.535 176 879.535 232.44 875.535 232.44 875.535 178 877.535 180 758 180ZM883.535 230.44 877.535 242.44 871.535 230.44Z" fill="#ED7D31"/><path d="M205.5 222.5 382.5 263.5 382.5 345.5 205.5 386.5Z" stroke="#000000" stroke-width="2.66667" stroke-miterlimit="8" fill="#4472C4" fill-rule="evenodd"/><text fill="#FFFFFF" font-family="Calibri,Calibri_MSFontService,sans-serif" font-weight="400" font-size="24" transform="translate(220.462 311)">Compressor</text><path d="M966.5 386.5 789.5 345.5 789.5 263.5 966.5 222.5Z" stroke="#000000" stroke-width="2.66667" stroke-miterlimit="8" fill="#ED7D31" fill-rule="evenodd"/><text fill="#FFFFFF" font-family="Calibri,Calibri_MSFontService,sans-serif" font-weight="400" font-size="24" transform="translate(855.544 311)">Turbine</text></g></svg>