<svg width="937" height="404" xmlns="http://www.w3.org/2000/svg" xmlns:xlink="http://www.w3.org/1999/xlink" overflow="hidden"><defs><clipPath id="clip0"><rect x="203" y="69" width="937" height="404"/></clipPath></defs><g clip-path="url(#clip0)" transform="translate(-203 -69)"><rect x="382.5" y="289.5" width="129" height="30" stroke="#000000" stroke-width="2.66667" stroke-miterlimit="8" fill="#A5A5A5"/><path d="M2-2.2328e-06 2.00009 84.0405-1.99991 84.0405-2 2.2328e-06ZM6.00009 82.0405 0.000104987 94.0405-5.99991 82.0405Z" fill="#4472C4" transform="matrix(1 0 0 -1 294 460.041)"/><path d="M292 242.642 292 181 352.837 181 352.837 185 294 185 296 183 296 242.642ZM350.837 177 362.837 183 350.837 189Z" fill="#4472C4"/><path d="M900 369 900 450.112 896 450.112 896 369ZM904 448.112 898 460.112 892 448.112Z"/><path d="M205.5 436.5C205.5 423.245 216.245 412.5 229.5 412.5 242.755 412.5 253.5 423.245 253.5 436.5 253.5 449.755 242.755 460.5 229.5 460.5 216.245 460.5 205.5 449.755 205.5 436.5Z" stroke="#000000" stroke-width="2.66667" stroke-miterlimit="8" fill="none" fill-rule="evenodd"/><text font-family="Calibri,Calibri_MSFontService,sans-serif" font-weight="400" font-size="24" transform="translate(223.128 444)">2</text><path d="M229.5 177.5C229.5 164.245 240.245 153.5 253.5 153.5 266.755 153.5 277.5 164.245 277.5 177.5 277.5 190.755 266.755 201.5 253.5 201.5 240.245 201.5 229.5 190.755 229.5 177.5Z" stroke="#000000" stroke-width="2.66667" stroke-miterlimit="8" fill="none" fill-rule="evenodd"/><text font-family="Calibri,Calibri_MSFontService,sans-serif" font-weight="400" font-size="24" transform="translate(247.128 185)">3</text><path d="M830.5 436.5C830.5 423.245 841.245 412.5 854.5 412.5 867.755 412.5 878.5 423.245 878.5 436.5 878.5 449.755 867.755 460.5 854.5 460.5 841.245 460.5 830.5 449.755 830.5 436.5Z" stroke="#000000" stroke-width="2.66667" stroke-miterlimit="8" fill="none" fill-rule="evenodd"/><text font-family="Calibri,Calibri_MSFontService,sans-serif" font-weight="400" font-size="24" transform="translate(847.811 443)">6</text><path d="M850.5 150.5C850.5 137.245 861.245 126.5 874.5 126.5 887.755 126.5 898.5 137.245 898.5 150.5 898.5 163.755 887.755 174.5 874.5 174.5 861.245 174.5 850.5 163.755 850.5 150.5Z" stroke="#000000" stroke-width="2.66667" stroke-miterlimit="8" fill="none" fill-rule="evenodd"/><text font-family="Calibri,Calibri_MSFontService,sans-serif" font-weight="400" font-size="24" transform="translate(867.972 158)">5</text><rect x="966.5" y="289.5" width="31" height="30" stroke="#000000" stroke-width="2.66667" stroke-miterlimit="8" fill="#A5A5A5"/><path d="M0.0301244-3.3332 55.6308-2.8307 55.5705 3.8357-0.0301244 3.3332ZM52.3579-9.52721 72.2667 0.653123 52.1771 10.472Z" fill="#70AD47" transform="matrix(1 0 0 -1 997.5 304.153)"/><text font-family="Cambria Math,Cambria Math_MSFontService,sans-serif" font-weight="400" font-size="29" transform="translate(1012.64 269)">ğ‘Š</text><path d="M-4.07812-16.355C-4.53125-16.355-4.90885-16.5131-5.21094-16.8293-5.51302-17.1456-5.66406-17.5444-5.66406-18.0259-5.66406-18.5073-5.51302-18.9062-5.21094-19.2224-4.90885-19.5387-4.53125-19.6968-4.07812-19.6968-3.63444-19.6968-3.26156-19.5387-2.95947-19.2224-2.65739-18.9062-2.50635-18.5073-2.50635-18.0259-2.50635-17.5444-2.65739-17.1456-2.95947-16.8293-3.26156-16.5131-3.63444-16.355-4.07812-16.355Z" transform="translate(1032.12 263)"/><text font-family="Cambria Math,Cambria Math_MSFontService,sans-serif" font-weight="400" font-size="21" transform="translate(1036.58 275)">ğ‘›ğ‘’ğ‘¡<tspan font-size="24" x="-725.796" y="165">ğ´</tspan><tspan font-size="24" x="-710.629" y="165">ğ‘–ğ‘Ÿ</tspan><tspan font-size="24" x="-108.483" y="169">ğ¶</tspan><tspan font-size="24" x="-94.1498" y="169">ğ‘œğ‘šğ‘ğ‘¢ğ‘ ğ‘¡ğ‘–ğ‘œğ‘›</tspan><tspan font-size="24" x="21.0968" y="169"> </tspan><tspan font-size="24" x="26.4302" y="169">ğ‘”ğ‘ğ‘ ğ‘’ğ‘ </tspan></text><path d="M298 161 351.688 161 351.688 165 298 165ZM349.688 157 361.688 163 349.688 169Z" fill="#4472C4"/><path d="M0 0 0.000104987 55.0929" stroke="#4472C4" stroke-width="4" stroke-miterlimit="8" fill="none" fill-rule="evenodd" transform="matrix(1 0 0 -1 298 163.093)"/><text font-family="Cambria Math,Cambria Math_MSFontService,sans-serif" font-weight="400" font-size="24" transform="translate(273.822 97)">ğ¹<tspan font-size="24" x="14.6667" y="0">ğ‘¢ğ‘’ğ‘™</tspan></text><rect x="648.5" y="288.5" width="182" height="30" stroke="#000000" stroke-width="2.66667" stroke-miterlimit="8" fill="#A5A5A5"/><path d="M511 181 581.257 181 581.257 228.576 577.257 228.576 577.257 183 579.257 185 511 185ZM585.257 226.576 579.257 238.576 573.257 226.576Z" fill="#ED7D31"/><path d="M830 182 900.257 182 900.257 229.576 896.257 229.576 896.257 184 898.257 186 830 186ZM904.257 227.576 898.257 239.576 892.257 227.576Z" fill="#ED7D31"/><path d="M3.99965e-06-2 42.4981-1.99992 42.4981 2.00008-3.99965e-06 2ZM40.4981-5.99992 52.4981 0.000104987 40.498 6.00008Z" fill="#4472C4" transform="matrix(1 0 0 -1 629 183)"/><path d="M629 184 629 225.832" stroke="#4472C4" stroke-width="4" stroke-miterlimit="8" fill="none" fill-rule="evenodd"/><path d="M532.5 150.5C532.5 137.245 543.245 126.5 556.5 126.5 569.755 126.5 580.5 137.245 580.5 150.5 580.5 163.755 569.755 174.5 556.5 174.5 543.245 174.5 532.5 163.755 532.5 150.5Z" stroke="#000000" stroke-width="2.66667" stroke-miterlimit="8" fill="none" fill-rule="evenodd"/><text font-family="Calibri,Calibri_MSFontService,sans-serif" font-weight="400" font-size="24" transform="translate(549.434 158)">4</text><path d="M205.5 222.5 382.5 263.5 382.5 345.5 205.5 386.5Z" stroke="#000000" stroke-width="2.66667" stroke-miterlimit="8" fill="#4472C4" fill-rule="evenodd"/><text fill="#FFFFFF" font-family="Calibri,Calibri_MSFontService,sans-serif" font-weight="400" font-size="24" transform="translate(220.462 311)">Compressor</text><path d="M966.5 386.5 830.5 352.5 830.5 256.5 966.5 222.5Z" stroke="#000000" stroke-width="2.66667" stroke-miterlimit="8" fill="#ED7D31" fill-rule="evenodd"/><text fill="#FFFFFF" font-family="Calibri,Calibri_MSFontService,sans-serif" font-weight="400" font-size="24" transform="translate(861.695 311)">Turbine 2</text><path d="M363.5 163.334C363.5 157.903 367.903 153.5 373.334 153.5L501.667 153.5C507.097 153.5 511.5 157.903 511.5 163.334L511.5 202.667C511.5 208.097 507.097 212.5 501.667 212.5L373.334 212.5C367.903 212.5 363.5 208.097 363.5 202.667Z" stroke="#000000" stroke-width="2.66667" stroke-miterlimit="8" fill="#FFC000" fill-rule="evenodd"/><text fill="#FFFFFF" font-family="Calibri,Calibri_MSFontService,sans-serif" font-weight="400" font-size="24" transform="translate(383.045 190)">Combustor</text><path d="M648.5 385.5 511.5 351.25 511.5 255.75 648.5 221.5Z" stroke="#000000" stroke-width="2.66667" stroke-miterlimit="8" fill="#ED7D31" fill-rule="evenodd"/><text fill="#FFFFFF" font-family="Calibri,Calibri_MSFontService,sans-serif" font-weight="400" font-size="24" transform="translate(543.259 311)">Turbine 1</text><path d="M681.5 163.5C681.5 157.977 685.977 153.5 691.5 153.5L820.5 153.5C826.023 153.5 830.5 157.977 830.5 163.5L830.5 203.5C830.5 209.023 826.023 213.5 820.5 213.5L691.5 213.5C685.977 213.5 681.5 209.023 681.5 203.5Z" stroke="#000000" stroke-width="2.66667" stroke-miterlimit="8" fill="#FFC000" fill-rule="evenodd"/><text fill="#FFFFFF" font-family="Calibri,Calibri_MSFontService,sans-serif" font-weight="400" font-size="24" transform="translate(711.098 191)">Reheater</text></g></svg>