<?xml version="1.0" encoding="utf-8"?>
<!-- Generator: Adobe Illustrator 25.0.0, SVG Export Plug-In . SVG Version: 6.00 Build 0)  -->
<svg version="1.1" id="Layer_1" xmlns="http://www.w3.org/2000/svg" xmlns:xlink="http://www.w3.org/1999/xlink" x="0px" y="0px"
	 viewBox="0 0 1259 271" style="enable-background:new 0 0 1259 271;" xml:space="preserve">
<style type="text/css">
	.st0{clip-path:url(#SVGID_2_);}
	.st1{clip-path:url(#SVGID_4_);}
	.st2{clip-path:url(#SVGID_6_);}
	.st3{clip-path:url(#SVGID_8_);}
	.st4{clip-path:url(#SVGID_10_);}
	.st5{fill:#A5A5A5;stroke:#000000;stroke-width:1.3376;stroke-miterlimit:8;}
	.st6{fill:#4472C4;}
	.st7{fill:none;stroke:#000000;stroke-width:1.3376;stroke-miterlimit:8;}
	.st8{font-family:'ArialMT';}
	.st9{font-size:12.0594px;}
	.st10{fill:#70AD47;}
	.st11{fill:none;stroke:#4472C4;stroke-width:2.0064;stroke-miterlimit:8;}
	.st12{fill:#ED7D31;}
	.st13{fill-rule:evenodd;clip-rule:evenodd;fill:#4472C4;stroke:#000000;stroke-width:1.3376;stroke-miterlimit:8;}
	.st14{fill:#FFFFFF;}
	.st15{fill-rule:evenodd;clip-rule:evenodd;fill:#ED7D31;stroke:#000000;stroke-width:1.3376;stroke-miterlimit:8;}
	.st16{fill-rule:evenodd;clip-rule:evenodd;fill:#FFC000;stroke:#000000;stroke-width:1.3376;stroke-miterlimit:8;}
	.st17{font-family:'Arial-BoldMT';}
	.st18{font-size:24px;}
	.st19{clip-path:url(#SVGID_12_);}
	.st20{clip-path:url(#SVGID_14_);}
	.st21{clip-path:url(#SVGID_16_);}
	.st22{clip-path:url(#SVGID_18_);}
	.st23{fill:#A5A5A5;stroke:#000000;stroke-width:1.3074;stroke-miterlimit:8;}
	.st24{font-size:11.7724px;}
	.st25{fill:none;stroke:#000000;stroke-width:1.3074;stroke-miterlimit:8;}
	.st26{fill:#E7E6E6;stroke:#000000;stroke-width:1.3074;stroke-miterlimit:8;}
	.st27{fill:none;stroke:#4472C4;stroke-width:1.961;stroke-miterlimit:8;}
	.st28{fill-rule:evenodd;clip-rule:evenodd;fill:#4472C4;stroke:#000000;stroke-width:1.3074;stroke-miterlimit:8;}
	.st29{clip-path:url(#SVGID_20_);}
	.st30{clip-path:url(#SVGID_22_);fill:none;}
	.st31{clip-path:url(#SVGID_22_);}
	.st32{fill:#A5A5A5;stroke:#000000;stroke-width:1.3436;stroke-miterlimit:8;}
	.st33{font-size:12.1218px;}
	.st34{fill-rule:evenodd;clip-rule:evenodd;fill:#FFC000;stroke:#000000;stroke-width:1.3436;stroke-miterlimit:8;}
	.st35{fill:none;stroke:#000000;stroke-width:1.3436;stroke-miterlimit:8;}
	.st36{fill:none;stroke:#4472C4;stroke-width:2.0154;stroke-miterlimit:8;}
	.st37{fill:#C55A11;fill-opacity:0.949;stroke:#000000;stroke-width:1.3436;stroke-miterlimit:8;}
	.st38{fill:none;stroke:#ED7D31;stroke-width:2.0154;stroke-miterlimit:8;}
	.st39{fill-rule:evenodd;clip-rule:evenodd;fill:#4472C4;stroke:#000000;stroke-width:1.3436;stroke-miterlimit:8;}
	.st40{fill-rule:evenodd;clip-rule:evenodd;fill:#ED7D31;stroke:#000000;stroke-width:1.3436;stroke-miterlimit:8;}
</style>
<g>
	<defs>
		<rect id="SVGID_1_" y="0" width="1259" height="271"/>
	</defs>
	<clipPath id="SVGID_2_">
		<use xlink:href="#SVGID_1_"  style="overflow:visible;"/>
	</clipPath>
	<g transform="translate(1 1)" class="st0">
		<g>
			<defs>
				<rect id="SVGID_3_" x="472" y="0" width="470" height="203"/>
			</defs>
			<clipPath id="SVGID_4_">
				<use xlink:href="#SVGID_3_"  style="overflow:visible;"/>
			</clipPath>
			<g class="st1">
				<g>
					<defs>
						<rect id="SVGID_5_" x="472" y="0" width="470" height="203"/>
					</defs>
					<clipPath id="SVGID_6_">
						<use xlink:href="#SVGID_5_"  style="overflow:visible;"/>
					</clipPath>
					<g class="st2">
						<g>
							<defs>
								<rect id="SVGID_7_" x="472" y="0" width="470" height="203"/>
							</defs>
							<clipPath id="SVGID_8_">
								<use xlink:href="#SVGID_7_"  style="overflow:visible;"/>
							</clipPath>
							<g class="st3">
								<g>
									<defs>
										<rect id="SVGID_9_" x="472" y="0" width="470" height="203"/>
									</defs>
									<clipPath id="SVGID_10_">
										<use xlink:href="#SVGID_9_"  style="overflow:visible;"/>
									</clipPath>
									<g class="st4">
										<path class="st5" d="M562,110.8h64.7v15.1H562V110.8z"/>
										<path class="st6" d="M518.6,196.5l0-42.2h-2v42.2H518.6z M520.7,155.3l-3-6l-3,6H520.7z"/>
										<path class="st6" d="M516.6,87.2v-31h30.5v2h-29.5l1-1v30H516.6z M546.2,54.3l6,3l-6,3V54.3z"/>
										<path d="M821.6,150.7v40.8h-2v-40.8H821.6z M823.6,190.5l-3,6l-3-6H823.6z"/>
										<path class="st7" d="M473.3,184.7c0-6.7,5.4-12.1,12-12.1c6.6,0,12,5.4,12,12.1c0,6.7-5.4,12.1-12,12.1
											C478.6,196.7,473.3,191.3,473.3,184.7z"/>
										<text transform="matrix(0.9983 0 0 1 482.0957 188.0002)" class="st8 st9">2</text>
										<path class="st7" d="M485.3,54.5c0-6.7,5.4-12.1,12-12.1s12,5.4,12,12.1c0,6.7-5.4,12.1-12,12.1S485.3,61.2,485.3,54.5z"
											/>
										<text transform="matrix(0.9983 0 0 1 494.1348 58.0002)" class="st8 st9">3</text>
										<path class="st7" d="M786.8,184.7c0-6.7,5.4-12.1,12-12.1c6.6,0,12,5.4,12,12.1c0,6.7-5.4,12.1-12,12.1
											C792.1,196.7,786.8,191.3,786.8,184.7z"/>
										<text transform="matrix(0.9983 0 0 1 795.4375 188.0002)" class="st8 st9">6</text>
										<path class="st7" d="M796.8,41c0-6.7,5.4-12.1,12-12.1c6.6,0,12,5.4,12,12.1c0,6.7-5.4,12.1-12,12.1
											C802.2,53,796.8,47.6,796.8,41z"/>
										<text transform="matrix(0.9983 0 0 1 805.5508 45.0002)" class="st8 st9">5</text>
										<path class="st5" d="M855,110.8h15.5v15.1H855V110.8z"/>
										<path class="st10" d="M870.5,119.8l27.9-0.3l0-3.3l-27.9,0.3L870.5,119.8z M896.8,122.9l10-5.1l-10.1-4.9L896.8,122.9z"/>
										<path d="M885.8,89.3c-0.2,0-0.4-0.1-0.6-0.2c-0.2-0.2-0.2-0.4-0.2-0.6c0-0.2,0.1-0.4,0.2-0.6c0.2-0.2,0.3-0.2,0.6-0.2
											c0.2,0,0.4,0.1,0.6,0.2c0.2,0.2,0.2,0.4,0.2,0.6c0,0.2-0.1,0.4-0.2,0.6C886.3,89.2,886.1,89.3,885.8,89.3z"/>
										<text transform="matrix(0.9983 0 0 1 900.7061 187.9997)" class="st8 st9"> </text>
										<path class="st6" d="M519.7,46.2h26.9v2h-26.9V46.2z M545.6,44.2l6,3l-6,3V44.2z"/>
										<path class="st11" d="M519.7,47.3l0-27.7"/>
										<path class="st5" d="M695.5,110.3h91.3v15.1h-91.3V110.3z"/>
										<path class="st12" d="M626.5,56.3h35.2v23.9h-2V57.3l1,1h-34.2V56.3z M663.7,79.2l-3,6l-3-6H663.7z"/>
										<path class="st12" d="M786.5,56.8h35.2v23.9h-2V57.8l1,1h-34.2V56.8z M823.8,79.7l-3,6l-3-6H823.8z"/>
										<path class="st6" d="M685.7,58.3l21.3,0v-2l-21.3,0V58.3z M706,60.3l6-3l-6-3L706,60.3z"/>
										<path class="st11" d="M685.7,57.8v21"/>
										<path class="st7" d="M637.3,41c0-6.7,5.4-12.1,12-12.1s12,5.4,12,12.1c0,6.7-5.4,12.1-12,12.1S637.3,47.6,637.3,41z"/>
										<text transform="matrix(0.9983 0 0 1 645.7715 45.0002)" class="st8 st9">4</text>
										<path class="st13" d="M473.3,77.1L562,97.7v41.2l-88.8,20.6V77.1z"/>
										<text transform="matrix(0.9983 0 0 1 480.7598 122.0002)" class="st14 st8 st9">Compressor</text>
										<path class="st15" d="M855,159.5l-68.2-17.1V94.2L855,77.1V159.5z"/>
										<text transform="matrix(0.9983 0 0 1 802.4023 122.0002)" class="st14 st8 st9">Turbine </text>
										<text transform="matrix(0.9983 0 0 1 843.0312 122.0002)" class="st14 st8 st9">2</text>
										<path class="st16" d="M552.5,47.4c0-2.7,2.2-4.9,4.9-4.9h64.4c2.7,0,4.9,2.2,4.9,4.9v19.8c0,2.7-2.2,4.9-4.9,4.9h-64.4
											c-2.7,0-4.9-2.2-4.9-4.9V47.4z"/>
										<text transform="matrix(0.9983 0 0 1 562.3105 61.0002)" class="st14 st8 st9">Combustor</text>
										<path class="st15" d="M695.5,159l-68.7-17.2v-48l68.7-17.2V159z"/>
										<text transform="matrix(0.9983 0 0 1 642.6738 122.0002)" class="st14 st8 st9">Turbine </text>
										<text transform="matrix(0.9983 0 0 1 683.3037 122.0002)" class="st14 st8 st9">1</text>
										<path class="st16" d="M712,47.5c0-2.8,2.2-5,5-5h64.7c2.8,0,5,2.2,5,5v20.1c0,2.8-2.2,5-5,5H717c-2.8,0-5-2.2-5-5V47.5z"
											/>
										<text transform="matrix(0.9983 0 0 1 726.8613 61.0002)" class="st14 st8 st9">Reheater</text>
									</g>
								</g>
							</g>
						</g>
					</g>
				</g>
			</g>
		</g>
		<text transform="matrix(1 0 0 1 138.6 248)" class="st17 st18">Recuperator</text>
		<text transform="matrix(1 0 0 1 620.6 248)" class="st17 st18">Reheat</text>
		<text transform="matrix(1 0 0 1 1050.658 248)" class="st17 st18">Intercooling</text>
		<g>
			<defs>
				<rect id="SVGID_11_" x="956" y="11" width="302" height="181"/>
			</defs>
			<clipPath id="SVGID_12_">
				<use xlink:href="#SVGID_11_"  style="overflow:visible;"/>
			</clipPath>
			<g class="st19">
				<g>
					<defs>
						<rect id="SVGID_13_" x="956" y="11" width="302" height="181"/>
					</defs>
					<clipPath id="SVGID_14_">
						<use xlink:href="#SVGID_13_"  style="overflow:visible;"/>
					</clipPath>
					<g class="st20">
						<g>
							<defs>
								<rect id="SVGID_15_" x="956" y="11" width="302" height="181"/>
							</defs>
							<clipPath id="SVGID_16_">
								<use xlink:href="#SVGID_15_"  style="overflow:visible;"/>
							</clipPath>
							<g class="st21">
								<g>
									<defs>
										<rect id="SVGID_17_" x="956" y="11" width="302" height="181"/>
									</defs>
									<clipPath id="SVGID_18_">
										<use xlink:href="#SVGID_17_"  style="overflow:visible;"/>
									</clipPath>
									<g class="st22">
										<path class="st23" d="M1046.9,105.4h89.7v14.7h-89.7V105.4z"/>
										<text transform="matrix(0.9995 0 0 1 1079.7705 115.9997)" class="st14 st8 st24">shaft</text>
										<path class="st6" d="M1004.5,189.1l0-41.2h-2l0,41.2H1004.5z M1006.5,148.8l-2.9-5.9l-2.9,5.9H1006.5z"/>
										<path class="st6" d="M1002.6,82.3v-39h44.6v2h-43.7l1-1v38H1002.6z M1046.2,41.4l5.9,2.9l-5.9,2.9V41.4z"/>
										<path class="st25" d="M960.2,177.5c0-6.5,5.3-11.8,11.8-11.8c6.5,0,11.8,5.3,11.8,11.8c0,6.5-5.3,11.8-11.8,11.8
											C965.4,189.3,960.2,184,960.2,177.5z"/>
										<text transform="matrix(0.9995 0 0 1 968.8105 180.9997)" class="st8 st24">2</text>
										<path class="st25" d="M1207.3,24c0-6.5,5.3-11.8,11.8-11.8c6.5,0,11.8,5.3,11.8,11.8s-5.3,11.8-11.8,11.8
											C1212.5,35.8,1207.3,30.5,1207.3,24z"/>
										<text transform="matrix(0.9995 0 0 1 1215.6602 27.9997)" class="st8 st24">5</text>
										<path class="st26" d="M1052.3,30.4h65.7v28.4h-65.7V30.4z"/>
										<text transform="matrix(0.9995 0 0 1 1058.5996 47.9997)" class="st8 st24">Intercooler</text>
										<path class="st6" d="M1117.8,43.4h63.2v34.1h-2V44.4l1,1h-62.2V43.4z M1182.9,76.5l-2.9,5.9l-2.9-5.9H1182.9z"/>
										<path class="st23" d="M1223.4,105.4h28.4v14.7h-28.4V105.4z"/>
										<path class="st25" d="M1003.3,24c0-6.5,5.3-11.8,11.8-11.8c6.5,0,11.8,5.3,11.8,11.8s-5.3,11.8-11.8,11.8
											C1008.6,35.8,1003.3,30.5,1003.3,24z"/>
										<text transform="matrix(0.9995 0 0 1 1012.0498 27.9997)" class="st8 st24">3</text>
										<path class="st25" d="M1156.8,24c0-6.5,5.3-11.8,11.8-11.8c6.5,0,11.8,5.3,11.8,11.8s-5.3,11.8-11.8,11.8
											C1162,35.8,1156.8,30.5,1156.8,24z"/>
										<text transform="matrix(0.9995 0 0 1 1165.2402 27.9997)" class="st8 st24">4</text>
										<path class="st27" d="M1207,88.7V42.9"/>
										<path class="st6" d="M1207,41.9h39.8v2H1207V41.9z M1245.9,39.9l5.9,2.9l-5.9,2.9V39.9z"/>
										<path class="st28" d="M1136.7,72.6l86.8,20.1v40.2l-86.8,20.1V72.6z"/>
										<text transform="matrix(0.9995 0 0 1 1139.7402 115.9997)" class="st14 st8 st24">Compressor </text>
										<text transform="matrix(0.9995 0 0 1 1199.5518 115.9997)" class="st14 st8 st24">2</text>
										<path class="st28" d="M960.2,72.6l86.8,20.1v40.2L960.2,153V72.6z"/>
										<text transform="matrix(0.9995 0 0 1 963.1719 115.9997)" class="st14 st8 st24">Compressor </text>
										<text transform="matrix(0.9995 0 0 1 1022.9834 115.9997)" class="st14 st8 st24">1</text>
									</g>
								</g>
							</g>
						</g>
					</g>
				</g>
			</g>
		</g>
		<g>
			<defs>
				<rect id="SVGID_19_" y="4" width="458" height="199"/>
			</defs>
			<clipPath id="SVGID_20_">
				<use xlink:href="#SVGID_19_"  style="overflow:visible;"/>
			</clipPath>
			<g class="st29">
				<g>
					<defs>
						<rect id="SVGID_21_" y="4" width="458" height="199"/>
					</defs>
					<clipPath id="SVGID_22_">
						<use xlink:href="#SVGID_21_"  style="overflow:visible;"/>
					</clipPath>
					<rect y="4" class="st30" width="458" height="199"/>
					<rect y="4" class="st30" width="459" height="200"/>
					<g class="st31">
						<path class="st32" d="M90.4,110.3h205.1v15.2H90.4V110.3z"/>
						<text transform="matrix(0.9976 0 0 1 180.5879 121.0002)" class="st14 st8 st33">shaft</text>
						<path class="st6" d="M3,206.8l0-42.4H1l0,42.4H3z M5,165.4l-3-6.1l-3,6.1H5z"/>
						<path class="st34" d="M204.8,44.6c0-2.7,2.2-5,5-5h65.2c2.7,0,5,2.2,5,5v19.9c0,2.7-2.2,5-5,5h-65.2c-2.7,0-5-2.2-5-5V44.6z"
							/>
						<text transform="matrix(0.9976 0 0 1 215.1172 58.0002)" class="st14 st8 st33">Combustor</text>
						<path d="M341.1,148.5v43h-2v-43H341.1z M343.1,190.4l-3,6.1l-3-6.1H343.1z"/>
						<path class="st35" d="M8.3,190.4c0-6.7,5.4-12.1,12.1-12.1c6.7,0,12.1,5.4,12.1,12.1c0,6.7-5.4,12.1-12.1,12.1
							C13.7,202.6,8.3,197.1,8.3,190.4z"/>
						<text transform="matrix(0.9976 0 0 1 17.1956 193.881)" class="st8 st33">2</text>
						<path class="st35" d="M32.5,28c0-6.7,5.4-12.1,12.1-12.1c6.7,0,12.1,5.4,12.1,12.1c0,6.7-5.4,12.1-12.1,12.1
							C37.9,40.1,32.5,34.7,32.5,28z"/>
						<text transform="matrix(0.9976 0 0 1 41.1274 32.0002)" class="st8 st33">3</text>
						<path class="st35" d="M304.6,184.6c0-6.7,5.4-12.1,12.1-12.1c6.7,0,12.1,5.4,12.1,12.1c0,6.7-5.4,12.1-12.1,12.1
							C310,196.7,304.6,191.3,304.6,184.6z"/>
						<text transform="matrix(0.9976 0 0 1 313.4941 188.0002)" class="st8 st33">5</text>
						<path class="st35" d="M298,74.5c0-6.7,5.4-12.1,12.1-12.1c6.7,0,12.1,5.4,12.1,12.1c0,6.7-5.4,12.1-12.1,12.1
							C303.4,86.6,298,81.2,298,74.5z"/>
						<text transform="matrix(0.9976 0 0 1 306.8193 78.0002)" class="st8 st33">4</text>
						<path class="st32" d="M384.7,110.3h15.6v15.2h-15.6V110.3z"/>
						<path class="st10" d="M400.3,119.4l28-0.3l0-3.4l-28,0.3L400.3,119.4z M426.7,122.5l10-5.1l-10.1-5L426.7,122.5z"/>
						<path d="M415.7,88.7c-0.2,0-0.4-0.1-0.6-0.2c-0.2-0.2-0.2-0.4-0.2-0.6c0-0.2,0.1-0.4,0.2-0.6c0.2-0.2,0.3-0.2,0.6-0.2
							c0.2,0,0.4,0.1,0.6,0.2c0.2,0.2,0.2,0.4,0.2,0.6c0,0.2-0.1,0.4-0.2,0.6C416.1,88.6,415.9,88.7,415.7,88.7z"/>
						<text transform="matrix(0.9976 0 0 1 416.7236 186.0002)" class="st8 st33"> </text>
						<path class="st6" d="M123.4,61.1h76.4v2h-76.4V61.1z M198.8,59.1l6,3l-6,3V59.1z"/>
						<path class="st36" d="M123.4,92.5l0-30.5"/>
						<path class="st37" d="M122.2,24.5h64v30.3h-64V24.5z"/>
						<path class="st6" d="M44.8,86.3V46.4h155.1v2h-154l1-1v38.9H44.8z M198.9,44.4l6,3l-6,3V44.4z"/>
						<path class="st12" d="M359.9,32.8l-260.6,0v2l260.6,0V32.8z M100.3,30.8l-6,3l6,3V30.8z"/>
						<path class="st38" d="M360.3,33.8v49.3"/>
						<text transform="matrix(0.9976 0 0 1 123.2959 19.0002)" class="st8 st33">Regenerator</text>
						<path class="st12" d="M279.6,53h61.2v28.5h-2V54l1,1h-60.2V53z M342.9,80.5l-3,6.1l-3-6.1H342.9z"/>
						<path class="st39" d="M1.3,76.5l89.2,20.7v41.4L1.3,159.3V76.5z"/>
						<text transform="matrix(0.9976 0 0 1 8.7983 121.0002)" class="st14 st8 st33">Compressor</text>
						<path class="st40" d="M384.7,159.3l-89.2-20.7V97.2l89.2-20.7V159.3z"/>
						<text transform="matrix(0.9976 0 0 1 328.7852 121.0002)" class="st14 st8 st33">Turbine</text>
					</g>
				</g>
			</g>
		</g>
	</g>
</g>
</svg>
